<svg xmlns="http://www.w3.org/2000/svg" width="3798.113" height="1482.758" viewBox="0 0 3798.113 1482.758">
    <defs>
        <style>
            .cls-1,.cls-5{fill:#001c50}.cls-2{fill:#09193d}.cls-3,.cls-4{fill:#008c9a}.cls-4,.cls-5{fill-rule:evenodd}
        </style>
    </defs>
    <g id="ASITA_LOGO" data-name="ASITA LOGO" transform="translate(-142.23 -10.947)">
        <path id="Path_655" d="M1224.039 803.515c-352.577 0-643.014 270.331-681.886 618.261a595.869 595.869 0 0 0 100.272 8.493c327.156 0 592.368-265.2 592.368-592.36 0-11.5-.368-22.929-1.018-34.277-3.242-.045-6.482-.117-9.736-.117z" class="cls-1" data-name="Path 655" transform="translate(84.358 -273.04)"/>
        <path id="Path_656" d="M739.746 801.062a746.1 746.1 0 0 1 30.224 86.831h267.985c-98.991-144.6-260.372-243.093-445.4-256.573 56.901 18.924 108.156 77.461 147.191 169.742z" class="cls-1" data-name="Path 656" transform="translate(185.563 -618.764)"/>
        <path id="Path_657" d="M520.533 888.967h351.8c-35.477-136.836-91.356-233.067-148.209-257.31-10.141-.515-20.331-.873-30.6-.873-8.033 0-16.023.2-23.975.523-57.129 23.675-113.37 120.178-149.016 257.66z" class="cls-1" data-name="Path 657" transform="translate(40.954 -619.837)"/>
        <path id="Path_658" d="M460.061 730.061c.043-.075.087.078.133 0h-1.612a587.667 587.667 0 0 0-77.164 260.651h335.887c.965-92.515 11.279-181.391 29.912-260.651z" class="cls-1" data-name="Path 658" transform="translate(-238.355 -420.56)"/>
        <path id="Path_659" d="M415.4 888.206h1.146c.042-.066.087.067.132 0h272.68a745.62 745.62 0 0 1 30.225-86.831c39.377-93.1 91.2-151.831 148.7-170.211C680.1 642.546 515.691 741.6 415.4 888.206z" class="cls-1" data-name="Path 659" transform="translate(-170.12 -619.079)"/>
        <path id="Path_660" d="M938.38 730.77c-.135-.239-.264-.482-.4-.723H654.993c2.55 10.847 6.241 30.61 9.925 51.529A776.429 776.429 0 0 1 938.38 730.77z" class="cls-2" data-name="Path 660" transform="translate(310.915 -420.547)"/>
        <g id="Group_2548" data-name="Group 2548" transform="translate(503.022 353.45)">
            <path id="Path_661" d="M1477.437 807.5l-39.666-62.84h-161.362c-428.2 0-775.314 347.118-775.314 775.31a771.6 771.6 0 0 0 91.177 364.946 777.171 777.171 0 0 1-20.426-177.49c0-151.158 47.538-347.293 118.106-469.091 138.939-239.8 361-364.861 684.509-364.861h67.848z" class="cls-3" data-name="Path 661" transform="translate(-501.095 -744.659)"/>
        </g>
        <path id="Path_662" d="M919.625 798.331c-4.434-26.829-9.153-53.483-12.371-68.285H536.233c-16.9 77.669-27.344 166.184-28.307 260.652h149.209a777.311 777.311 0 0 1 262.49-192.367z" class="cls-1" data-name="Path 662" transform="translate(15.645 -420.547)"/>
        <path id="Path_663" d="M623.421 830.13H507.987a1419.514 1419.514 0 0 0 13.9 173.435A769.919 769.919 0 0 1 623.421 830.13z" class="cls-1" data-name="Path 663" transform="translate(15.764 -219.605)"/>
        <g id="Group_2549" data-name="Group 2549" transform="translate(142.23 610.498)">
            <path id="Path_664" d="M717.981 830.148H385.006c0-.093 0 .1 0 0h-3.861A588.255 588.255 0 0 0 445.02 1090.8h305.6c-19.609-78.859-30.864-167.776-32.639-260.652z" class="cls-1" data-name="Path 664" transform="translate(-381.141 -830.121)"/>
            <path id="Path_665" d="M658.963 1100.55a770.808 770.808 0 0 1 18.991-170.337H409.871a594.945 594.945 0 0 0 251.207 226.612c-1.348-18.591-2.115-37.345-2.115-56.275z" class="cls-1" data-name="Path 665" transform="translate(-323.458 -629.162)"/>
        </g>
        <path id="Path_666" d="M1488.133 868.572V839.74h-41.418a62.472 62.472 0 0 0-62.408 62.357v25.739h44.564a59.355 59.355 0 0 0 59.262-59.263zM1383.917 1039a62.753 62.753 0 0 1 62.627-62.628h41.589v372.565a124.177 124.177 0 0 1-36.445 88.534c-37.659 37.587-96.9 42.755-147.217 33.521 0-88.39 79.445-56.342 79.445-122.056z" class="cls-4" data-name="Path 666" transform="translate(2074.02 -162.303)"/>
        <path id="Path_667" d="M1196.77 973.6l-59.331 4.58c.163-48.839.039-95.906.039-144.776h-41.6a62.741 62.741 0 0 0-62.615 62.615V1202.9a124.581 124.581 0 0 0 124.4 124.4h63.42c0-86.951-83.6-58.166-83.6-124.4v-154.565a62.752 62.752 0 0 0 59.7-65.411z" class="cls-5" data-name="Path 667" transform="translate(1266.668 -181.17)"/>
        <path id="Path_668" d="M1188.811 937.63a96 96 0 0 0-32.816-44.749c-28.018-21.252-67.815-29.174-109.582-29.174-49.945 0-88.541 9.771-114.514 28.4-25.634 18.373-39.064 45.606-39.064 80.782 0 21.526 5.48 39.907 16.1 54.754 10.712 14.992 26.792 26.589 47.806 34.4 10.51 3.752 22.03 7.4 36.2 11.249 14.218 3.86 30.821 7.865 51.409 12.344 22.8 5.282 37.264 9.935 46.12 15.8 9.533 6.315 12.841 13.918 12.841 24.769 0 12.508-5.337 22.582-14.845 29.5-9.274 6.724-22.573 10.438-38.8 10.438-18.12 0-33.323-3.128-44.435-11.336-.43-.327-.875-.669-1.273-.983-25.238-20.254-55.406-25.607-85.415-15.193l-26.678 9.27c7.127 24.959 20.43 43.624 37.753 57.2 30.455 23.885 73.551 32.368 117.436 32.368 49.879 0 89.714-11.457 117.011-32.4 27.02-20.737 41.788-50.955 41.788-88.638 0-22.695-5.046-41.473-15.314-56.506q-15.475-22.6-47.32-34.749c-30.149-11.359-60.886-18.143-92.112-25.023l-15.387-3.448c-17.526-3.917-39.7-8.9-39.7-32.87 0-10.514 4.411-18.742 12.8-24.259 7.934-5.261 19.53-8.028 34.339-8.028 15.364 0 27.828 2.365 37.221 8.465 25.506 16.594 53.925 19.468 81.865 8.264z" class="cls-5" data-name="Path 668" transform="translate(845.732 -90.956)"/>
        <path id="Path_669" d="M1109.143 1289.308L1003.8 1023.816l-58.1 146.512 89.4-4.02.839 18.433a62.768 62.768 0 0 1-59.7 65.406l-62.119 2.836.021-3.029-15.633 39.355c-9.961 25.106-33.035 40.774-60.051 40.774h-68.7L950.9 873.37c9.962-25.124 33.042-40.774 60.072-40.774h18.349l197.347 497.487H1169.2c-27.037-.001-50.09-15.649-60.057-40.775z" class="cls-5" data-name="Path 669" transform="translate(482.278 -183.57)"/>
        <path id="Path_670" d="M1529.3 1289.308l-105.34-265.492-58.1 146.512 89.4-4.02.839 18.433a62.767 62.767 0 0 1-59.7 65.406l-62.12 2.836.022-3.029-15.632 39.355c-9.961 25.106-33.038 40.774-60.051 40.774h-68.7l181.138-456.708c9.96-25.129 33.039-40.779 60.068-40.779h18.352l197.347 497.487h-57.474c-27.034-.001-50.09-15.646-60.049-40.775z" class="cls-4" data-name="Path 670" transform="translate(1733.004 -183.57)"/>
        <path id="Path_671" d="M1387.055 937.732c15.334-42.5 50.817-60.086 92.813-68.534 42.466-8.526 92.445-6.7 125.3 6.285 27.843 10.979 50.686 30.992 61.82 63.414a131.256 131.256 0 0 1 6.723 42.962v187.96c0 57.824-91.62 68.007-135.976 67.082-74.429-1.579-168.564-33.514-168.564-120.8 0-97.737 120.5-130.152 201.736-131.487 0-21.694-9.47-36.227-23.154-44.5-16.44-9.928-36.777-10.616-53.1-.021-25.3 16.464-53.51 19.317-81.24 8.213l-26.36-10.578zm183.856 235.626l1.083-131.759c-55.484-.239-103.759 41.035-103.759 74.5-.735 59.191 69.165 68.327 102.676 57.259z" class="cls-4" data-name="Path 671" transform="translate(2266.629 -90.119)"/>
        <path id="Path_672" d="M1105.85 937.732c15.34-42.5 50.818-60.086 92.817-68.534 42.47-8.526 92.441-6.7 125.3 6.285 27.843 10.979 50.686 30.992 61.825 63.41a131.361 131.361 0 0 1 6.716 42.966v187.96c0 57.824-91.614 68.007-135.978 67.077-74.422-1.578-168.556-33.509-168.556-120.793 0-97.737 120.5-130.152 201.73-131.487 0-21.694-9.465-36.227-23.155-44.5-16.439-9.928-36.772-10.616-53.092-.021-25.309 16.462-53.52 19.317-81.248 8.213l-26.36-10.578zm183.856 235.623l1.085-131.755c-55.486-.242-103.762 41.035-103.762 74.5-.729 59.19 69.171 68.326 102.677 57.254z" class="cls-5" data-name="Path 672" transform="translate(1429.541 -90.119)"/>
        <path id="Path_673" d="M1089.227 861.552v-28.86H1047.8a62.507 62.507 0 0 0-62.408 62.381v25.742h44.568a59.385 59.385 0 0 0 59.272-59.263zm0 107.824v297.659a62.559 62.559 0 0 1-62.389 62.381h-41.45V1028.64a59.357 59.357 0 0 1 59.242-59.264z" class="cls-5" data-name="Path 673" transform="translate(1124.155 -183.285)"/>
        <path id="Path_674" d="M1269.862 848.731c-13.185-7.905-35.765-14.88-72.075-13.114l-58.555 2.893c-30.741-30.444-94.31-93.513-103-103.079-8.153-8.974-22.546-23.686-41.236-31.226-18.669-7.568-40.785-9-34.415 2.072 2.689 4.731 50.978 87.841 71.542 123.263l7.934 13.857q-5.525.275-11.044.544l-.524.028c-39.491 1.943-78.2 3.841-106.429 5.215v.025l-27.36 1.349-25.052-33.848s-6.2-8.572-16.666-7.928l-17.414 1.026c-11.161.655-10.028 7.69-9.02 9.468l44.709 73.117-35.766 77.886c-.793 1.856-1.064 9 10.094 8.344l17.388-1.053c10.5-.617 15.619-9.857 15.619-9.857l22.158-38.81 130.7-2.7c-20.925 36.036-68.2 117.417-70.872 122.093-6.367 11.091 15.746 9.655 34.424 2.092 18.7-7.556 33.094-22.249 41.233-31.23 8.958-9.863 76.136-76.472 105.683-105.723 4.533-.21 9.1-.441 13.773-.665 15.368-.76 140.843-6.332 144.1-26.29 2.109-13.047-19.634-31.611-29.929-37.749z" class="cls-3" data-name="Path 674" transform="translate(654.138 -484.388)"/>
    </g>
</svg>
