<svg xmlns="http://www.w3.org/2000/svg" width="367.958" height="143.648" viewBox="0 0 367.958 143.648">
    <defs>
        <style>
            .cls-1,.cls-4{fill:#070d61}.cls-2,.cls-3{fill:#148ea4}.cls-3,.cls-4{fill-rule:evenodd}
        </style>
    </defs>
    <g id="ASITA_LOGO" data-name="ASITA LOGO" transform="translate(-142.23 -10.947)">
        <path id="Path_655" d="M608.213 803.515c-34.157 0-62.295 26.189-66.061 59.9a57.417 57.417 0 0 0 67.1-56.565 57.13 57.13 0 0 0-.1-3.321c-.31-.007-.624-.014-.939-.014z" class="cls-1" data-name="Path 655" transform="translate(-353.005 -742.236)"/>
        <path id="Path_656" d="M606.818 647.764a72.288 72.288 0 0 1 2.928 8.412h25.962a57.332 57.332 0 0 0-43.15-24.857c5.513 1.834 10.479 7.505 14.26 16.445z" class="cls-1" data-name="Path 656" transform="translate(-388.724 -620.217)"/>
        <path id="Path_657" d="M520.533 655.8h34.082c-3.437-13.256-8.851-22.579-14.358-24.928-.982-.05-1.97-.085-2.965-.085-.778 0-1.552.02-2.323.051-5.534 2.291-10.983 11.64-14.436 24.962z" class="cls-1" data-name="Path 657" transform="translate(-337.685 -619.837)"/>
        <path id="Path_658" d="M389.037 730.042c0-.007.008.008.013 0h-.156a56.933 56.933 0 0 0-7.476 25.252h32.54a116.834 116.834 0 0 1 2.9-25.252z" class="cls-1" data-name="Path 658" transform="translate(-239.107 -690.171)"/>
        <path id="Path_659" d="M415.4 656.066h.111c0-.006.009.006.013 0h26.417a72.231 72.231 0 0 1 2.928-8.412c3.815-9.019 8.835-14.709 14.406-16.49a57.311 57.311 0 0 0-43.875 24.902z" class="cls-1" data-name="Path 659" transform="translate(-263.19 -620.106)"/>
        <path id="Path_660" d="M682.447 730.117l-.039-.07h-27.415c.247 1.051.6 2.966.962 4.992a75.219 75.219 0 0 1 26.492-4.922z" class="cls-1" data-name="Path 660" transform="translate(-432.965 -690.176)"/>
        <g id="Group_2548" data-name="Group 2548" transform="translate(177.184 44.129)">
            <path id="Path_661" d="M595.682 750.747l-3.843-6.088h-15.632a75.124 75.124 0 0 0-66.279 110.467 75.288 75.288 0 0 1-1.979-17.2c0-14.644 4.605-33.645 11.442-45.445 13.46-23.232 34.973-35.347 66.315-35.347h6.573z" class="cls-2" data-name="Path 661" transform="translate(-501.095 -744.659)"/>
        </g>
        <path id="Path_662" d="M547.812 736.662c-.43-2.6-.887-5.181-1.2-6.615h-35.943a125.818 125.818 0 0 0-2.742 25.252h14.455a75.306 75.306 0 0 1 25.43-18.637z" class="cls-1" data-name="Path 662" transform="translate(-328.752 -690.176)"/>
        <path id="Path_663" d="M519.17 830.13h-11.183a137.54 137.54 0 0 0 1.347 16.8 74.591 74.591 0 0 1 9.836-16.8z" class="cls-1" data-name="Path 663" transform="translate(-328.795 -761.096)"/>
        <g id="Group_2549" data-name="Group 2549" transform="translate(142.23 69.031)">
            <path id="Path_664" d="M413.774 830.124h-32.259c0-.009 0 .009 0 0h-.374a56.99 56.99 0 0 0 6.189 25.251h29.606a114.888 114.888 0 0 1-3.162-25.251z" class="cls-1" data-name="Path 664" transform="translate(-381.141 -830.121)"/>
            <path id="Path_665" d="M434 946.715a74.676 74.676 0 0 1 1.84-16.5h-25.969a57.638 57.638 0 0 0 24.337 21.954 75.2 75.2 0 0 1-.208-5.454z" class="cls-1" data-name="Path 665" transform="translate(-401.499 -901.047)"/>
        </g>
        <path id="Path_666" d="M1322.265 842.533v-2.793h-4.012a6.052 6.052 0 0 0-6.046 6.041v2.494h4.317a5.75 5.75 0 0 0 5.741-5.741zm-10.1 16.511a6.079 6.079 0 0 1 6.067-6.067h4.029v36.093a12.03 12.03 0 0 1-3.531 8.577c-3.648 3.641-9.388 4.142-14.262 3.248 0-8.563 7.7-5.458 7.7-11.825z" class="cls-3" data-name="Path 666" transform="translate(-848.715 -764.223)"/>
        <path id="Path_667" d="M1049.1 846.984l-5.748.444c.016-4.731 0-9.291 0-14.026h-4.03a6.078 6.078 0 0 0-6.066 6.066V869.2a12.069 12.069 0 0 0 12.052 12.052h6.144c0-8.424-8.1-5.635-8.1-12.052v-14.975a6.079 6.079 0 0 0 5.783-6.337z" class="cls-4" data-name="Path 667" transform="translate(-681.995 -760.328)"/>
        <path id="Path_668" d="M920.627 870.869a9.3 9.3 0 0 0-3.179-4.335c-2.714-2.059-6.57-2.826-10.616-2.826-4.839 0-8.578.947-11.094 2.751a9.1 9.1 0 0 0-3.785 7.826 8.913 8.913 0 0 0 1.56 5.3 9.647 9.647 0 0 0 4.631 3.333c1.018.364 2.134.717 3.507 1.09s2.986.762 4.981 1.2a14.641 14.641 0 0 1 4.468 1.531 2.574 2.574 0 0 1 1.244 2.4 3.4 3.4 0 0 1-1.438 2.861 6.381 6.381 0 0 1-3.759 1.011 7.148 7.148 0 0 1-4.3-1.1l-.123-.1a8.4 8.4 0 0 0-8.275-1.472l-2.585.9a10.515 10.515 0 0 0 3.658 5.542c2.95 2.314 7.125 3.136 11.377 3.136 4.832 0 8.691-1.11 11.336-3.139a10.361 10.361 0 0 0 4.048-8.587 8.6 8.6 0 0 0-6.068-8.841 63.973 63.973 0 0 0-8.924-2.424l-1.491-.334c-1.7-.379-3.846-.862-3.846-3.184a2.669 2.669 0 0 1 1.24-2.35 6.048 6.048 0 0 1 3.327-.778 6.554 6.554 0 0 1 3.606.82 8.343 8.343 0 0 0 7.931.8z" class="cls-4" data-name="Path 668" transform="translate(-595.071 -778.957)"/>
        <path id="Path_669" d="M802.642 876.842l-10.205-25.721-5.629 14.194 8.661-.389.081 1.786a6.081 6.081 0 0 1-5.783 6.337l-6.018.275v-.293l-1.515 3.813a6.157 6.157 0 0 1-5.818 3.95h-6.655l17.548-44.246a6.156 6.156 0 0 1 5.82-3.95h1.778l19.119 48.2h-5.566a6.153 6.153 0 0 1-5.818-3.956z" class="cls-4" data-name="Path 669" transform="translate(-520.016 -759.832)"/>
        <path id="Path_670" d="M1222.795 876.842l-10.205-25.721-5.629 14.194 8.661-.389.081 1.786a6.081 6.081 0 0 1-5.784 6.337l-6.018.275v-.293l-1.515 3.813a6.157 6.157 0 0 1-5.818 3.95h-6.655l17.548-44.245a6.155 6.155 0 0 1 5.819-3.951h1.778l19.119 48.2h-5.568a6.152 6.152 0 0 1-5.814-3.956z" class="cls-3" data-name="Path 670" transform="translate(-778.295 -759.832)"/>
        <path id="Path_671" d="M1370.907 871.132c1.486-4.118 4.923-5.821 8.992-6.64 4.114-.826 8.956-.649 12.139.609a9.885 9.885 0 0 1 5.989 6.144 12.717 12.717 0 0 1 .651 4.162v18.209c0 5.6-8.876 6.589-13.173 6.5-7.211-.153-16.33-3.247-16.33-11.7 0-9.469 11.674-12.609 19.544-12.738a4.738 4.738 0 0 0-2.243-4.311 4.81 4.81 0 0 0-5.144 0 8.283 8.283 0 0 1-7.87.8l-2.554-1.025zm17.812 22.827l.1-12.765c-5.375-.023-10.052 3.975-10.052 7.218-.067 5.734 6.706 6.619 9.952 5.547z" class="cls-3" data-name="Path 671" transform="translate(-888.49 -779.129)"/>
        <path id="Path_672" d="M1089.708 871.132c1.486-4.118 4.923-5.821 8.992-6.64 4.114-.826 8.956-.649 12.139.609a9.888 9.888 0 0 1 5.99 6.143 12.728 12.728 0 0 1 .651 4.162v18.209c0 5.6-8.875 6.589-13.174 6.5-7.21-.153-16.329-3.246-16.329-11.7 0-9.469 11.674-12.609 19.543-12.738a4.737 4.737 0 0 0-2.243-4.311 4.808 4.808 0 0 0-5.143 0 8.286 8.286 0 0 1-7.871.8l-2.554-1.025zm17.812 22.827l.105-12.764c-5.375-.023-10.052 3.975-10.052 7.218-.073 5.733 6.7 6.618 9.946 5.546z" class="cls-4" data-name="Path 672" transform="translate(-715.63 -779.129)"/>
        <path id="Path_673" d="M995.448 835.488v-2.8h-4.014a6.056 6.056 0 0 0-6.046 6.043v2.494h4.318a5.753 5.753 0 0 0 5.742-5.741zm0 10.446v28.837a6.061 6.061 0 0 1-6.044 6.043h-4.016v-29.139a5.75 5.75 0 0 1 5.739-5.742z" class="cls-4" data-name="Path 673" transform="translate(-652.566 -759.891)"/>
        <path id="Path_674" d="M868.948 712.827c-1.277-.766-3.465-1.442-6.983-1.271l-5.673.28c-2.978-2.949-9.137-9.06-9.978-9.986a11.516 11.516 0 0 0-3.995-3.025c-1.809-.733-3.951-.872-3.334.2.261.458 4.939 8.51 6.931 11.942l.769 1.343-1.07.053h-.051l-10.311.505-2.653.132-2.427-3.279a1.985 1.985 0 0 0-1.615-.768l-1.687.1c-1.081.063-.971.745-.874.917l4.331 7.084-3.465 7.545c-.077.18-.1.872.978.808l1.684-.1a1.986 1.986 0 0 0 1.513-.955l2.147-3.76 12.662-.262c-2.027 3.491-6.607 11.375-6.866 11.828-.617 1.074 1.525.935 3.335.2a11.5 11.5 0 0 0 3.995-3.026c.868-.956 7.376-7.409 10.239-10.242l1.334-.064c1.489-.074 13.645-.613 13.96-2.547.208-1.259-1.899-3.057-2.896-3.652z" class="cls-2" data-name="Path 674" transform="translate(-553.132 -667.062)"/>
    </g>
</svg>
